/* XPM */
static char * bitcoin32_xpm[] = {
"32 32 281 2",
"  	c None",
". 	c #360021",
"+ 	c #360022",
"@ 	c #380022",
"# 	c #390022",
"$ 	c #390023",
"% 	c #3A0023",
"& 	c #3B0023",
"* 	c #340021",
"= 	c #350021",
"- 	c #370021",
"; 	c #370022",
"> 	c #3C0023",
", 	c #330020",
"' 	c #3D0024",
") 	c #3E0024",
"! 	c #320020",
"~ 	c #330021",
"{ 	c #3F0024",
"] 	c #310020",
"^ 	c #31001E",
"/ 	c #32001F",
"( 	c #33001F",
"_ 	c #34001F",
": 	c #350020",
"< 	c #390021",
"[ 	c #3A0021",
"} 	c #3B0021",
"| 	c #3B0022",
"1 	c #3C0022",
"2 	c #400024",
"3 	c #300020",
"4 	c #380726",
"5 	c #4E233F",
"6 	c #502440",
"7 	c #512440",
"8 	c #522541",
"9 	c #4D1D3B",
"0 	c #3D0728",
"a 	c #380021",
"b 	c #501C3B",
"c 	c #572442",
"d 	c #582443",
"e 	c #582442",
"f 	c #430629",
"g 	c #400025",
"h 	c #2F001C",
"i 	c #583149",
"j 	c #ECE9EA",
"k 	c #EBE7E9",
"l 	c #EAE6E8",
"m 	c #ECE8EA",
"n 	c #D6CBD1",
"o 	c #6D455D",
"p 	c #34001D",
"q 	c #3B0224",
"r 	c #C9B9C2",
"s 	c #E9E4E6",
"t 	c #EAE5E7",
"u 	c #E8E2E6",
"v 	c #EAE4E7",
"w 	c #5E2B49",
"x 	c #30001F",
"y 	c #59314B",
"z 	c #EBE6EA",
"A 	c #E3DCE0",
"B 	c #E2DBE0",
"C 	c #E2DBDF",
"D 	c #F2EEF0",
"E 	c #FFFFFF",
"F 	c #B7A4AF",
"G 	c #471433",
"H 	c #35001E",
"I 	c #420A2C",
"J 	c #E3DBE0",
"K 	c #EDE8EA",
"L 	c #70425C",
"M 	c #3F0023",
"N 	c #410025",
"O 	c #31001F",
"P 	c #3F102E",
"Q 	c #765669",
"R 	c #7F6073",
"S 	c #7F5F72",
"T 	c #765469",
"U 	c #917686",
"V 	c #E7E1E5",
"W 	c #FDFEFD",
"X 	c #805D71",
"Y 	c #370020",
"Z 	c #410A2B",
"` 	c #E0D7DD",
" .	c #866275",
"..	c #F3F0F2",
"+.	c #6E405A",
"@.	c #420025",
"#.	c #2F001F",
"$.	c #30001D",
"%.	c #4E233E",
"&.	c #B8A8B2",
"*.	c #BAA9B4",
"=.	c #AD99A5",
"-.	c #663F57",
";.	c #9A808F",
">.	c #CDC0C7",
",.	c #542440",
"'.	c #34001C",
").	c #4F1A38",
"!.	c #EAE4E9",
"~.	c #2E001C",
"{.	c #633D56",
"].	c #B39FAB",
"^.	c #673F57",
"/.	c #D1C5CC",
"(.	c #907183",
"_.	c #3C0325",
":.	c #40092A",
"<.	c #E2DADF",
"[.	c #55233F",
"}.	c #EBE5EA",
"|.	c #2E001F",
"1.	c #623A53",
"2.	c #DED7DB",
"3.	c #A48F9C",
"4.	c #F9F7F8",
"5.	c #7C5A6E",
"6.	c #8B6C7F",
"7.	c #FBFBFB",
"8.	c #E5DEE2",
"9.	c #5E304B",
"0.	c #3A0123",
"a.	c #D8CED4",
"b.	c #501C39",
"c.	c #EBE5E9",
"d.	c #430025",
"e.	c #613A53",
"f.	c #C9BCC4",
"g.	c #431531",
"h.	c #997F8F",
"i.	c #C8B9C2",
"j.	c #643B53",
"k.	c #C0B0B9",
"l.	c #A68D9B",
"m.	c #430C2C",
"n.	c #764E66",
"o.	c #88657A",
"p.	c #3C0123",
"q.	c #CEC1C9",
"r.	c #3D0C2A",
"s.	c #562A45",
"t.	c #D5CAD1",
"u.	c #896A7C",
"v.	c #7E5B6F",
"w.	c #EEEAEC",
"x.	c #FAF8F9",
"y.	c #6C415A",
"z.	c #34001B",
"A.	c #330019",
"B.	c #310016",
"C.	c #CDC1C9",
"D.	c #431330",
"E.	c #30001B",
"F.	c #8C6E80",
"G.	c #DFD7DC",
"H.	c #633851",
"I.	c #B19CA8",
"J.	c #C3B2BB",
"K.	c #481232",
"L.	c #320018",
"M.	c #441431",
"N.	c #2E0019",
"O.	c #4A1937",
"P.	c #C3B3BC",
"Q.	c #9E8393",
"R.	c #6E465E",
"S.	c #E4DBE1",
"T.	c #7E586E",
"U.	c #3F0426",
"V.	c #320017",
"W.	c #CEC2C9",
"X.	c #42112F",
"Y.	c #2A0014",
"Z.	c #7B586E",
"`.	c #F0ECEE",
" +	c #F6F4F5",
".+	c #683E57",
"++	c #A18797",
"@+	c #FEFEFE",
"#+	c #E0D7DC",
"$+	c #4E1837",
"%+	c #CBBEC6",
"&+	c #5A314A",
"*+	c #856679",
"=+	c #714B62",
"-+	c #420F2E",
";+	c #B39EAB",
">+	c #B8A5B0",
",+	c #5F324C",
"'+	c #D9CFD5",
")+	c #987A8B",
"!+	c #300015",
"~+	c #EAE3E8",
"{+	c #C7B9C2",
"]+	c #7C5B6F",
"^+	c #EDEAEC",
"/+	c #C0AFB9",
"(+	c #491736",
"_+	c #653B54",
":+	c #E1D9DE",
"<+	c #754E65",
"[+	c #8E6E81",
"}+	c #F5F3F4",
"|+	c #F4F1F2",
"1+	c #9B7E8F",
"2+	c #F5F1F4",
"3+	c #C7B9C1",
"4+	c #816275",
"5+	c #FBFCFB",
"6+	c #CBBDC5",
"7+	c #522340",
"8+	c #2E0017",
"9+	c #A58C9A",
"0+	c #D7CCD2",
"a+	c #53213F",
"b+	c #CDBFC7",
"c+	c #FBFAFB",
"d+	c #C6B8C1",
"e+	c #7E5F72",
"f+	c #FAFAFA",
"g+	c #CABCC4",
"h+	c #532440",
"i+	c #2F0019",
"j+	c #51223E",
"k+	c #D6CCD2",
"l+	c #8C6B7E",
"m+	c #71475F",
"n+	c #BAA6B1",
"o+	c #C6B5BF",
"p+	c #C5B4BE",
"q+	c #C5B4BD",
"r+	c #551F3E",
"s+	c #D4C9CF",
"t+	c #9D8593",
"u+	c #FCFDFD",
"v+	c #CABBC4",
"w+	c #522341",
"x+	c #33001D",
"y+	c #310019",
"z+	c #917384",
"A+	c #F1EEF0",
"B+	c #795369",
"C+	c #5C2D48",
"D+	c #5D2E49",
"E+	c #5E2E49",
"F+	c #5E2C48",
"G+	c #3F0125",
"H+	c #623B53",
"I+	c #FEFDFE",
"J+	c #FCFBFB",
"K+	c #532441",
"L+	c #34001E",
"M+	c #3E0727",
"N+	c #CCBEC6",
"O+	c #FAF9FA",
"P+	c #FDFCFD",
"Q+	c #693954",
"R+	c #5D354F",
"S+	c #C2B2BC",
"T+	c #4C1C3A",
"U+	c #32001A",
"V+	c #653350",
"W+	c #340121",
"X+	c #350121",
"Y+	c #3A0022",
"Z+	c #3C0425",
"`+	c #3E0626",
" @	c #3F0526",
".@	c #3F0527",
"+@	c #400627",
"@@	c #400426",
"#@	c #3D0023",
"                                                                ",
"                        . + @ @ # $ % &                         ",
"                    * = - ; @ # # % & & > >                     ",
"                , * * = . + @ # # % % & > ' ' )                 ",
"            ! ! ~ * * = . + @ # # % & & > ' ' ) ) {             ",
"          ] ! ! ^ / / ( _ : - # # % & < [ } | 1 { { 2           ",
"        3 ] / 4 5 6 7 7 8 9 0 a # % % b c c d e f { g g         ",
"        3 ] h i j k l l m n o p @ < q r s t u v w { g g         ",
"      x 3 ] h y z A B C D E F G H a I J E K E E L M g N N       ",
"      x 3 ] O P Q R S T U V W X Y Y Z ` E  ...E +.M g N N @.    ",
"    #.3 3 ] $.%.&.&.*.=.-.;.E >.,.'.Z ` E ).!.E +.M g N N @.    ",
"    #.x 3 ] ~.{.E E E E ].^./.E (._.:.<.E [.}.E +.M 2 N N @.    ",
"  |.#.x 3 ] ~.1.E 2.3.V 4.5.6.7.8.9.0.a.E b.c.E +.M g N N @.d.  ",
"  |.#.3 3 ] ~.e.E f.g.h.E i.j.k.E l.m.n.o.p.c.E +.M g N N @.@.  ",
"  |.#.3 3 ] ~.e.E q.r.s.t.E u.v.w.x.y.z.A.B.c.E +.M g N N @.d.  ",
"  |.#.x 3 ] ~.e.E C.D.E.F.E G.H.I.E J.K.[ L.c.E +.M g N N @.d.  ",
"  |.#.x 3 ] ~.e.E C.M.N.O.P.E Q.R.S.E T.U.V.c.E +.M g N N @.d.  ",
"  |.#.x 3 ] ~.e.E W.X.Y.Y.Z.`. +.+++@+#+$+B.c.E +.M g N N @.d.  ",
"  |.#.x 3 ] ~.e.E %+&+*+=+-+;+E >+,+'+E )+!+~+E +.M g N N @.@.  ",
"  |.#.x 3 ] ~.e.E {+]+^+/+(+_+:+E <+[+}+|+1+2+E +.M g N N @.d.  ",
"    #.x 3 ] ~.e.E 3+4+5+6+7+8+9+E 0+a+b+E c+E E L M g N N @.    ",
"    #.x 3 ] ~.e.E d+e+f+g+h+i+j+k+E l+m+n+o+p+q+r+{ g N N @.    ",
"      x 3 ] ~.e.E s+t+u+v+w+x+y+z+}+A+B+C+D+E+F+G+{ g N N @.    ",
"      x 3 ] ~.H+E I+J+E i.K+L+Y M+N+E O+4.4.4.P+Q+{ g N N       ",
"        3 ] ~.R+E E E E S+T+L+# U+B+K E E E E E V+{ g N         ",
"        3 ] ! ! ( W+* X+. ; @ # # Y+Z+`+ @.@+@@@{ { g g         ",
"          ] ! ! ~ * = = - ; @ # # % & & > #@' ) { { 2           ",
"            ! , ~ * * = - ; @ # # % & & > ' ' ) { {             ",
"                ~ * = = - ; @ # # % & & > ' ' )                 ",
"                  * = = - ; @ # # % & & > > '                   ",
"                        ; ; @ # # % % &                         ",
"                                                                "};
