/* XPM */
static char * bitcoin64_xpm[] = {
"64 64 440 2",
"  	c None",
". 	c #370022",
"+ 	c #380022",
"@ 	c #390022",
"# 	c #3A0023",
"$ 	c #350021",
"% 	c #360021",
"& 	c #360022",
"* 	c #390023",
"= 	c #3B0023",
"- 	c #340021",
"; 	c #3C0023",
"> 	c #3D0023",
", 	c #3D0024",
"' 	c #330020",
") 	c #330021",
"! 	c #3A0022",
"~ 	c #3E0024",
"{ 	c #320020",
"] 	c #3F0024",
"^ 	c #310020",
"/ 	c #400024",
"( 	c #400025",
"_ 	c #300020",
": 	c #31001E",
"< 	c #2E001B",
"[ 	c #2D001B",
"} 	c #2F001B",
"| 	c #30001B",
"1 	c #31001B",
"2 	c #31001C",
"3 	c #32001D",
"4 	c #380020",
"5 	c #36001D",
"6 	c #37001D",
"7 	c #38001E",
"8 	c #39001E",
"9 	c #31001F",
"0 	c #3C0D2A",
"a 	c #59314A",
"b 	c #643F56",
"c 	c #643E55",
"d 	c #653E55",
"e 	c #653E56",
"f 	c #613750",
"g 	c #32001C",
"h 	c #370020",
"i 	c #4D1938",
"j 	c #673B55",
"k 	c #693E57",
"l 	c #6A3E56",
"m 	c #6A3E57",
"n 	c #6B3E58",
"o 	c #693A54",
"p 	c #400427",
"q 	c #410025",
"r 	c #2A0017",
"s 	c #7D5E71",
"t 	c #D3CACF",
"u 	c #DBD4D8",
"v 	c #DAD2D6",
"w 	c #DAD2D7",
"x 	c #D3C8CE",
"y 	c #562A44",
"z 	c #35001F",
"A 	c #3E0627",
"B 	c #977A8B",
"C 	c #DFD7DB",
"D 	c #DBD3D7",
"E 	c #DBD2D7",
"F 	c #DCD2D7",
"G 	c #DCD3D7",
"H 	c #754A62",
"I 	c #400125",
"J 	c #260013",
"K 	c #A994A1",
"L 	c #FFFFFF",
"M 	c #BDACB5",
"N 	c #31001A",
"O 	c #481433",
"P 	c #BFADB7",
"Q 	c #A08393",
"R 	c #400226",
"S 	c #2F001F",
"T 	c #AA95A2",
"U 	c #F6F4F5",
"V 	c #714D62",
"W 	c #491433",
"X 	c #BCAAB4",
"Y 	c #A08293",
"Z 	c #30001F",
"` 	c #280015",
" .	c #866B7B",
"..	c #EEEAEC",
"+.	c #FAF8FA",
"@.	c #F8F6F8",
"#.	c #F8F5F7",
"$.	c #D4C9CF",
"%.	c #3A0625",
"&.	c #370021",
"*.	c #BCA9B4",
"=.	c #FEFDFD",
"-.	c #9F8192",
";.	c #421431",
">.	c #5B354C",
",.	c #613C52",
"'.	c #603B51",
").	c #613B51",
"!.	c #623B51",
"~.	c #613B52",
"{.	c #653F56",
"].	c #B8A7B0",
"^.	c #F9F7F8",
"/.	c #927686",
"(.	c #2D0015",
"_.	c #A58B98",
":.	c #6F475C",
"<.	c #E4DDE0",
"[.	c #420025",
"}.	c #330121",
"|.	c #2C0019",
"1.	c #21000D",
"2.	c #1F000A",
"3.	c #20000B",
"4.	c #21000B",
"5.	c #21000A",
"6.	c #2E0019",
"7.	c #471834",
"8.	c #E5DFE3",
"9.	c #E1D9DD",
"0.	c #4E1F3A",
"a.	c #36001F",
"b.	c #876477",
"c.	c #300014",
"d.	c #D0C2CA",
"e.	c #654056",
"f.	c #B5A3AE",
"g.	c #C6B9C1",
"h.	c #C5B6BF",
"i.	c #C7B9C1",
"j.	c #461834",
"k.	c #34001E",
"l.	c #785669",
"m.	c #FBFBFB",
"n.	c #AF9BA7",
"o.	c #2C0014",
"p.	c #8A687A",
"q.	c #310016",
"r.	c #CEC0C9",
"s.	c #270014",
"t.	c #9F8998",
"u.	c #FEFEFE",
"v.	c #AD9AA5",
"w.	c #34001F",
"x.	c #3C0927",
"y.	c #C9BDC3",
"z.	c #E8E2E5",
"A.	c #684057",
"B.	c #33001B",
"C.	c #A7919F",
"D.	c #FDFCFC",
"E.	c #5D354C",
"F.	c #5B314A",
"G.	c #C4B5BD",
"H.	c #34001D",
"I.	c #380021",
"J.	c #89687A",
"K.	c #CFC0C9",
"L.	c #2E001F",
"M.	c #A7919E",
"N.	c #D1C6CB",
"O.	c #33001E",
"P.	c #3B0627",
"Q.	c #A8949E",
"R.	c #EEEAED",
"S.	c #846376",
"T.	c #300018",
"U.	c #320016",
"V.	c #DFD8DC",
"W.	c #AC9BA5",
"X.	c #E8E3E6",
"Y.	c #7C5C6E",
"Z.	c #4B1B37",
"`.	c #F2EFF1",
" +	c #D0C4CB",
".+	c #461230",
"++	c #A996A1",
"@+	c #41102F",
"#+	c #461935",
"$+	c #EAE5E8",
"%+	c #EBE5E8",
"&+	c #3C0827",
"*+	c #3A0425",
"=+	c #886A7A",
"-+	c #F7F5F6",
";+	c #9C8190",
">+	c #2F0016",
",+	c #461131",
"'+	c #BAA7B2",
")+	c #876578",
"!+	c #310015",
"~+	c #41112F",
"{+	c #2D0018",
"]+	c #8F7483",
"^+	c #9F8895",
"/+	c #451231",
"(+	c #D8CFD4",
"_+	c #D9D0D5",
":+	c #5D304A",
"<+	c #35001E",
"[+	c #35001D",
"}+	c #734C62",
"|+	c #B9A7B1",
"1+	c #C1B1BA",
"2+	c #AF99A5",
"3+	c #572440",
"4+	c #2D0011",
"5+	c #CFC1CA",
"6+	c #430025",
"7+	c #33001F",
"8+	c #32001E",
"9+	c #DBD3D9",
"0+	c #FFFEFF",
"a+	c #50223C",
"b+	c #6D485E",
"c+	c #AD97A4",
"d+	c #390020",
"e+	c #2F0013",
"f+	c #340020",
"g+	c #31001D",
"h+	c #6D4B5F",
"i+	c #F8F6F7",
"j+	c #C0B1B8",
"k+	c #44102F",
"l+	c #B8A8B1",
"m+	c #E4DDE1",
"n+	c #734C63",
"o+	c #34001C",
"p+	c #42112F",
"q+	c #C2B2BB",
"r+	c #FAF8F9",
"s+	c #6E495F",
"t+	c #32001B",
"u+	c #5D324B",
"v+	c #BBA9B3",
"w+	c #420C2B",
"x+	c #51253F",
"y+	c #F4F1F3",
"z+	c #D9CFD4",
"A+	c #380222",
"B+	c #3F0A2A",
"C+	c #9C8290",
"D+	c #F1EEF0",
"E+	c #866477",
"F+	c #30001A",
"G+	c #9E8694",
"H+	c #907384",
"I+	c #2E0016",
"J+	c #542641",
"K+	c #E2DADE",
"L+	c #C9BBC3",
"M+	c #53213E",
"N+	c #37001E",
"O+	c #3E0C2A",
"P+	c #E6DFE3",
"Q+	c #E6E0E4",
"R+	c #4B1A36",
"S+	c #856578",
"T+	c #FEFFFE",
"U+	c #967889",
"V+	c #390021",
"W+	c #3B0022",
"X+	c #7B5B6D",
"Y+	c #FAF9FA",
"Z+	c #AD98A4",
"`+	c #4E1C3A",
" @	c #C7B8C0",
".@	c #DAD0D5",
"+@	c #643751",
"@@	c #360121",
"#@	c #CBBFC5",
"$@	c #EDE8EB",
"%@	c #663C54",
"&@	c #2F0017",
"*@	c #765066",
"=@	c #A58C9A",
"-@	c #42092A",
";@	c #3A0021",
">@	c #60384F",
",@	c #FAF9F9",
"'@	c #C2B3BC",
")@	c #451030",
"!@	c #AF9AA6",
"~@	c #ECE7E9",
"{@	c #734961",
"]@	c #38001F",
"^@	c #2E0013",
"/@	c #2F001A",
"(@	c #3D0B2A",
"_@	c #420F2E",
":@	c #A9939F",
"<@	c #F2EEF0",
"[@	c #836275",
"}@	c #290011",
"|@	c #693F57",
"1@	c #E7E1E4",
"2@	c #B9A5B0",
"3@	c #4C1635",
"4@	c #39001F",
"5@	c #3E0D2C",
"6@	c #5C344C",
"7@	c #A8919F",
"8@	c #B19DA9",
"9@	c #B29EAA",
"0@	c #724F64",
"a@	c #4E203C",
"b@	c #481634",
"c@	c #3B0224",
"d@	c #9C8291",
"e@	c #805C70",
"f@	c #2C0010",
"g@	c #390726",
"h@	c #9C8693",
"i@	c #C7B8C1",
"j@	c #360020",
"k@	c #380223",
"l@	c #876A7A",
"m@	c #F7F6F7",
"n@	c #9B8090",
"o@	c #2B0013",
"p@	c #5B2C48",
"q@	c #FFFEFE",
"r@	c #35001B",
"s@	c #D2C5CC",
"t@	c #390626",
"u@	c #A28D99",
"v@	c #F9F8F9",
"w@	c #461532",
"x@	c #D1C7CC",
"y@	c #DCD3D8",
"z@	c #5F324C",
"A@	c #8D6D80",
"B@	c #F8F7F8",
"C@	c #D7CCD2",
"D@	c #B8A3AF",
"E@	c #F0EBED",
"F@	c #A18C98",
"G@	c #F9F8F8",
"H@	c #CDBFC7",
"I@	c #390223",
"J@	c #6F4A5F",
"K@	c #AD97A3",
"L@	c #4B1836",
"M@	c #420E2D",
"N@	c #B3A1AB",
"O@	c #754E65",
"P@	c #2A0010",
"Q@	c #7E596D",
"R@	c #A18394",
"S@	c #350020",
"T@	c #60364F",
"U@	c #F1EFF0",
"V@	c #461030",
"W@	c #3C0324",
"X@	c #B4A0AB",
"Y@	c #967688",
"Z@	c #A995A1",
"`@	c #3E0929",
" #	c #977C8B",
".#	c #F5F3F4",
"+#	c #886679",
"@#	c #2D0013",
"##	c #5D2D49",
"$#	c #8E6E80",
"%#	c #977889",
"&#	c #977789",
"*#	c #8F6E81",
"=#	c #501939",
"-#	c #A8949F",
";#	c #9E8894",
">#	c #582945",
",#	c #D9D1D6",
"'#	c #CCBFC6",
")#	c #552440",
"!#	c #310018",
"~#	c #3C0124",
"{#	c #3E0326",
"]#	c #3F0326",
"^#	c #3F0327",
"/#	c #400327",
"(#	c #3F0125",
"_#	c #3C0022",
":#	c #E4DFE1",
"<#	c #7F6173",
"[#	c #C5B8BF",
"}#	c #FCFBFB",
"|#	c #3A0223",
"1#	c #816073",
"2#	c #7B586B",
"3#	c #6C4359",
"4#	c #6E455B",
"5#	c #6E455C",
"6#	c #6F455C",
"7#	c #6B3F57",
"8#	c #3E0123",
"9#	c #F5F2F4",
"0#	c #37001F",
"a#	c #4F1E3B",
"b#	c #C0B1BA",
"c#	c #FCFBFC",
"d#	c #F2EEF1",
"e#	c #F3EEF1",
"f#	c #886277",
"g#	c #734E64",
"h#	c #9F8091",
"i#	c #A892A0",
"j#	c #CDC0C9",
"k#	c #451130",
"l#	c #AB94A1",
"m#	c #290015",
"n#	c #816476",
"o#	c #FDFCFD",
"p#	c #A08996",
"q#	c #693F58",
"r#	c #785066",
"s#	c #330120",
"t#	c #350322",
"u#	c #360423",
"v#	c #360323",
"w#	c #370323",
"x#	c #370423",
"y#	c #3B0124",
"z#	c #3F0828",
"A#	c #420D2B",
"B#	c #430C2B",
"C#	c #430C2C",
"D#	c #440C2C",
"E#	c #450D2C",
"F#	c #420727",
"G#	c #3C0024",
"                                                                                                                                ",
"                                                                                                                                ",
"                                                      . . . + + + @ @ @ #                                                       ",
"                                              $ % % & . . + + + + @ @ * # # = = =                                               ",
"                                        - $ $ $ % % . . . + + + @ @ @ # # # = = ; ; ; ;                                         ",
"                                    - - $ $ $ $ % % . . . . + + @ @ @ * # # = = ; ; ; > , ,                                     ",
"                                ' ) - - - $ $ $ % % & . . . + + @ @ @ ! # # = = ; ; ; , , , , ~                                 ",
"                              ' ) ) - - - $ $ $ % % & . . . + + @ @ @ # # = = = ; ; ; , , , ~ ~ ~                               ",
"                          { { ' ) ) - - $ $ $ % % & & . . + + + @ @ @ # # # = = ; ; ; , , , ~ ~ ~ ~ ]                           ",
"                        { { { ' ' ) - - - $ $ $ % & & . . + + + @ @ @ # # # = = ; ; ; , , , ~ ~ ~ ] ] ]                         ",
"                      ^ ^ { { ' ' ) - - - $ $ % % % & . . + + + @ @ @ # # # = = ; ; ; , , , ~ ~ ~ ] ] ] /                       ",
"                    ^ ^ ^ { { ' ) ) - - - $ $ $ % % & . . + + + @ @ @ # # # = = ; ; ; > , , ~ ~ ~ ] ] ] / (                     ",
"                  _ ^ ^ ^ { { : < [ < } < } } | 1 1 2 3 . . + + @ @ @ # # = 4 5 5 6 6 6 7 7 8 8 > ] ] ] / ( (                   ",
"                _ _ ^ ^ ^ { 9 0 a b c c c c d d d d e f g + + + @ @ @ # # h i j k l l m m n n o p ] ] ] / ( ( q                 ",
"                _ _ ^ ^ ^ { r s t u v v v w w w w w w x y z + + @ @ @ # @ A B C D E F F F F G F H I ] ] / ( ( q                 ",
"              _ _ _ ^ ^ ^ { J K L L L L L L L L L L L L M N + + + @ @ # h O P L L L L L L L L L Q R ] ] ( ( ( q q               ",
"            S _ _ _ ^ ^ ^ { J T L L L L L L L L L L L L U V 1 + @ @ @ # h W X L L L L L L L L L Y R ] ] / ( ( q q q             ",
"            S Z _ _ ^ ^ ^ { `  ...+.@.@.@.@.@.#.L L L L L $.%.&.@ @ @ # h W *.L L L =.L L L L L -.R ] ] / ( ( q q q             ",
"          S S Z _ _ ^ ^ ^ { : ;.>.,.'.).).!.!.~.{.].L L L ^./.(.@ @ @ # h W *.L L L _.:.<.L L L -.R ] ] / ( ( q q q [.          ",
"          S S _ _ _ ^ ^ ^ { }.|.1.2.3.3.3.4.5.5.6.7.8.L L L 9.0.a.@ @ # h W *.L L L b.c.d.L L L -.R ] ] / ( ( q q q [.          ",
"        S S S _ _ _ ^ ^ ^ { |.e.f.g.h.h.h.h.h.i.j.k.l.L L L m.n.o.@ @ # h W *.L L L p.q.r.L L L -.R ] ] / ( ( q q q [.[.        ",
"        S S S Z _ _ ^ ^ ^ { s.t.L L u.u.u.u.u.L v.w.x.y.L L L z.A.B.@ # h W *.L L L p.q.r.L L L -.R ] ] / ( ( q q [.[.[.        ",
"        S S S _ _ _ ^ ^ ^ { s.C.L L L L L L L L D.E.% F.L L L L G.H.I.* h W *.L L L J.q.K.L L L -.R ] ] / / ( q q q [.[.[.      ",
"      L.S S S Z _ _ ^ ^ ^ { s.M.L L L L L L L L L N.O.P.Q.L L L R.S.T.# h W *.L L L p.U.K.L L L -.R ] ] / ( ( q q q [.[.[.      ",
"      L.S S S Z _ _ ^ ^ ^ { s.M.L L L V.W.X.L L L L Y.z Z.`.L L L  +.+4 h W *.L L L J.q.K.L L L -.R ] ] / ( q q q q [.[.[.      ",
"      L.S S S _ _ _ ^ ^ ^ { s.M.L L L ++@+#+$+L L L %+&+*+=+L L L -+;+>+4 ,+'+L L L )+!+K.L L L -.R ] ] / ( ( q q q [.[.[.      ",
"      L.S S S Z _ _ ^ ^ ^ { s.M.L L L ++~+{+]+^.L L u.^+g /+(+L L L _+:+<+[+}+|+1+2+3+4+5+L L L -.R ] / / ( ( q q q [.[.6+6+    ",
"    L.L.S S S _ _ _ ^ ^ ^ { s.M.L L L ++~+7+8+9+0+L L -+a+. b+L L L L c+H.! ! d+4 d+= e+5+L L L -.R ] ] ( ( ( q q q [.[.[.6+    ",
"    L.L.S S S _ _ _ ^ ^ ^ { s.M.L L L ++~+f+g+h+i+L L =.j+N k+l+L L L m+n+o+= = ; ; ; e+5+L L L -.R ] ] / ( ( q q q [.[.[.6+    ",
"    L.L.S S S Z _ _ ^ ^ ^ { s.M.L L L ++p+f+$ {+q+L L L r+s+t+u+i+L L L v+w+d+= ; ; ; e+5+L L L -.R ] ] / ( ( q q q [.[.6+6+    ",
"    L.L.S S S Z _ _ ^ ^ ^ { s.M.L L L ++p+f+$ w.x+y+L L u.z+A+B+C+L L L D+E+o+= ; ; ; e+5+L L L -.R ] ] / ( ( q q q [.[.[.6+    ",
"    L.L.S S S _ _ _ ^ ^ ^ { s.M.L L L ++~+f+$ % F+G+L L L ^.H+I+J+K+L L L L+M+N+; ; ; e+5+L L L -.R ] ] / ( ( q q q [.[.[.6+    ",
"    L.S S S S Z _ _ ^ ^ ^ { s.M.L L L ++~+f+$ $ % O+P+L L L Q+R+@ S+L L L T+U+V+W+; ; e+5+L L L -.R ] ] / ( ( q q q [.[.[.6+    ",
"    L.L.S S S Z _ _ ^ ^ ^ { s.M.L L L ++p+f+$ % % w.X+L L L Y+Z+T.`+ @L L L .@+@5 ; ; e+5+L L L -.R ] ] / ( ( q q q [.[.[.6+    ",
"    L.L.S S S _ _ _ ^ ^ ^ { s.M.L L L ++p+f+$ % % & @@#@L L L $@%@&@*@i+L L L =@-@;@; e+5+L L L -.R ] ] / ( ( q q q [.[.6+6+    ",
"    L.L.S S S _ _ _ ^ ^ ^ { s.M.L L L ++p+f+7+7+w.% . >@,@L L u.'@I.)@!@L L L ~@{@]@; ^@5+L L L -.R ] ] / ( ( q q q [.[.6+6+    ",
"    L.L.S S S Z _ _ ^ ^ ^ { s.M.L L L ++p+/@(@_@_@3 . % :@L L L <@[@}@|@1@L L L 2@3@4@e+5+L L L -.R ] ] / ( ( q q q [.[.6+6+    ",
"      L.S S S Z _ _ ^ ^ ^ { s.M.L L L ++5@6@7@8@9@0@% . a@$+L L L  +b@c@d@L L L m.e@d+f@K.L L L -.R ] ] / ( ( q q q [.[.[.6+    ",
"      L.S S S Z _ _ ^ ^ ^ { s.M.L L L ++g@h@L L L i@j@. k@l@L L L m@n@o@p@$.L q@L $.m r@s@L L L -.R ] ] ( / q q q q [.[.6+      ",
"      L.S S S _ _ _ ^ ^ { { s.M.L L L ++t@u@v@L L K.j@. % w@x@L L L y@z@T.A@B@L L L C@D@E@L L L -.R ] ] / ( q q q q [.[.6+      ",
"      L.S S S _ _ _ ^ ^ { { s.M.L L L ++t@F@G@L L H@j@. . I@J@L L L u.K@<+L@q+L L L L L L L L L -.R ] ] ( ( ( q q [.[.[.[.      ",
"        S S S Z _ _ ^ ^ ^ { s.M.L L L ++t@F@G@L L H@j@. . &.M@N@L L L z.O@P@Q@~@L L L L L L L L R@R ] ] / ( ( q q [.[.[.[.      ",
"        S S S _ _ _ ^ ^ ^ { s.M.L L L ++t@F@G@L L H@S@. . + &.T@U@L L L *.V@W@X@L L L L L L L L Y@I ] ] / ( ( q q q [.[.        ",
"        S S S Z _ _ ^ ^ { { s.M.L L L Z@t@F@G@L L H@S@. . + &.`@ #L L L .#+#@###$#%#Y@Y@Y@Y@&#*#=#] ] ] / ( ( q q q [.[.        ",
"          S S Z _ _ ^ ^ { { s.M.L L L -#' ;#G@L L H@j@. . . + j@>#,#L L L '#)#!#~#{#{#]#^#]#/#(#_#] ] ] / ( ( q q q [.          ",
"          S S Z _ _ ^ ^ ^ { s.M.L L L :#<#[#}#L L H@j@. . + + I.|#1#L L L u.h.2#3#4#4#5#5#5#6#7#8#] ] / / ( q q q q [.          ",
"            S Z _ _ ^ ^ ^ { s.M.L L L u.9#Y+L L L H@S@. . + + + 0#a#b#L L L c#y+d#e#e#e#e#e#e#U f#I ] ] / ( ( q q q             ",
"            S _ _ _ ^ ^ { { s.M.L L L L L L L L L H@f+. . + + + @ <+g#G@L L L L L L L L L L L L h#R ] ] / ( q q q q             ",
"              _ _ ^ ^ ^ ^ { s.i#L L L L L L L L L j#S@. . + + + @ h k#l#L L L L L L L L L L L L Y R ] ] / ( ( q q               ",
"                _ _ ^ ^ ^ { m#n#R.L o#o#o#o#o#o#L p#% . . + + + @ @ o+q#8.L L L L L L L L L L L r#I ] ] ( ( q q                 ",
"                _ _ ^ ^ ^ { ' 9 s#t#u#v#v#w#w#x#w#S@. . . . + + @ @ @ y#z#A#w+w+B#B#C#D#D#D#E#F#~ ] ] ] / ( ( q                 ",
"                  _ ^ ^ { { { ' ) - - - $ $ $ % % % . . . + + + @ @ * # # # = = = ; ; > , , ~ ~ ~ ] ] ] ( ( (                   ",
"                    ^ ^ ^ { ' ) ) ) - - $ $ $ % % % . . . + + + @ @ * # # # = = ; ; ; > , , ~ ~ ~ ] ] ] / (                     ",
"                      ^ ^ { { ) ) - - - $ $ $ % % % . . . + + + @ @ @ # # # = = ; ; ; > , , ~ ~ ~ ] ] ] /                       ",
"                        { { ' ) ' ) - - $ $ $ % % & . . . + + + @ @ @ ! # # = = ; ; ; , , , ~ ~ ~ ] ] ]                         ",
"                          { { ' ) - - - - $ $ % % & . . . + + + @ @ @ # # # = = ; ; G#, , , ~ ~ ~ ] ]                           ",
"                              ' ) ) - - $ $ $ % % & . . . + + + @ @ @ # # # = = ; ; ; , , , ~ ~ ~                               ",
"                                ) ) - - $ $ $ % % & . . . + + + @ @ @ # # # = = ; ; ; , , , ~ ~                                 ",
"                                    - - $ $ $ % % % . . . . + + @ @ @ # # # = = ; ; ; , , ,                                     ",
"                                        $ $ $ $ % & . . . + + + @ @ @ # # # = = = ; ; ,                                         ",
"                                            $ % % & . . . + + + @ @ @ # # # = = = ;                                             ",
"                                                    . . . + + + @ @ @ # # #                                                     ",
"                                                                                                                                ",
"                                                                                                                                "};
