/* XPM */
static char * bitcoin16_xpm[] = {
"16 16 153 2",
"  	c None",
". 	c #360021",
"+ 	c #370022",
"@ 	c #380022",
"# 	c #460B23",
"$ 	c #3B0023",
"% 	c #330020",
"& 	c #340021",
"* 	c #390022",
"= 	c #3A0023",
"- 	c #3C0023",
"; 	c #3D0024",
"> 	c #320120",
", 	c #3A0928",
"' 	c #411130",
") 	c #431130",
"! 	c #400B2B",
"~ 	c #380021",
"{ 	c #3C0225",
"] 	c #450C2D",
"^ 	c #4A1232",
"/ 	c #45092B",
"( 	c #581725",
"_ 	c #300020",
": 	c #370626",
"< 	c #967D8C",
"[ 	c #EDE9EB",
"} 	c #E9E4E6",
"| 	c #C0AFB9",
"1 	c #360020",
"2 	c #572543",
"3 	c #C4B4BD",
"4 	c #FEFFFE",
"5 	c #A98D9D",
"6 	c #3F0024",
"7 	c #6E2923",
"8 	c #350323",
"9 	c #654157",
"0 	c #977F8E",
"a 	c #997F8E",
"b 	c #C8B9C2",
"c 	c #8B6A7E",
"d 	c #562543",
"e 	c #B49EAA",
"f 	c #DED5DA",
"g 	c #B59DAA",
"h 	c #410226",
"i 	c #400024",
"j 	c #2F001F",
"k 	c #390827",
"l 	c #AB96A3",
"m 	c #F8F7F8",
"n 	c #DFD6DB",
"o 	c #987D8D",
"p 	c #D1C4CB",
"q 	c #6D425C",
"r 	c #9B7D8E",
"s 	c #CBBCC5",
"t 	c #B59DAB",
"u 	c #410225",
"v 	c #410024",
"w 	c #833924",
"x 	c #A18897",
"y 	c #A68F9C",
"z 	c #CEC1C9",
"A 	c #AD97A4",
"B 	c #B29BA8",
"C 	c #4C1635",
"D 	c #A58A9A",
"E 	c #B9A3B0",
"F 	c #641C25",
"G 	c #A28A99",
"H 	c #9D8493",
"I 	c #4A1937",
"J 	c #D4C8CF",
"K 	c #AA93A1",
"L 	c #5A2946",
"M 	c #8D6A7F",
"N 	c #BBA5B2",
"O 	c #450225",
"P 	c #D98620",
"Q 	c #3C0A1F",
"R 	c #A18A98",
"S 	c #A58F9C",
"T 	c #5D314C",
"U 	c #8E7183",
"V 	c #D6CBD2",
"W 	c #A8909F",
"X 	c #B39CA9",
"Y 	c #A08293",
"Z 	c #BAA4B0",
"` 	c #5F1824",
" .	c #D88520",
"..	c #A08897",
"+.	c #B7A5B0",
"@.	c #C8B9C1",
"#.	c #5F334E",
"$.	c #BCAAB5",
"%.	c #BBA8B3",
"&.	c #DFD5DB",
"*.	c #AC91A0",
"=.	c #400025",
"-.	c #8B3D24",
";.	c #390927",
">.	c #A68F9D",
",.	c #D4CAD1",
"'.	c #E2DADE",
").	c #4B1A38",
"!.	c #79546A",
"~.	c #DBD2D7",
"{.	c #AD95A3",
"].	c #D5C8CF",
"^.	c #8D697D",
"/.	c #3F0023",
"(.	c #A05322",
"_.	c #370625",
":.	c #8D7183",
"<.	c #D1C5CC",
"[.	c #BDABB6",
"}.	c #410C2C",
"|.	c #481433",
"1.	c #A48A99",
"2.	c #C0AEB9",
"3.	c #AE96A4",
"4.	c #7D536B",
"5.	c #742C23",
"6.	c #4D1721",
"7.	c #491B38",
"8.	c #623953",
"9.	c #5A2D48",
"0.	c #3A0324",
"a.	c #4C1837",
"b.	c #6C3F59",
"c.	c #6D405A",
"d.	c #582141",
"e.	c #5F1A23",
"f.	c #AA601F",
"g.	c #61271C",
"h.	c #2F001B",
"i.	c #32001C",
"j.	c #380020",
"k.	c #36001D",
"l.	c #37001D",
"m.	c #702C20",
"n.	c #AA5F1F",
"o.	c #783520",
"p.	c #591B22",
"q.	c #3B0222",
"r.	c #571823",
"s.	c #853C23",
"t.	c #9B5220",
"u.	c #D1811E",
"v.	c #D0801F",
"          . + @ # $             ",
"      % & . + * = - ; ;         ",
"    > , ' ) ! ~ { ] ^ / (       ",
"  _ : < [ } | 1 2 3 4 5 6 7     ",
"  _ 8 9 0 a b c d e f g h i     ",
"j _ k l m n o p q r s t u v w   ",
"j _ k x y o z A B C D E u i F   ",
"j _ k G H I J K s L M N u i O P ",
"Q _ k R S T U V W X Y Z h i `  .",
"j _ k ..+.@.#.$.%.%.&.*.=.i -.  ",
"  _ ;.>.,.'.).!.~.{.].^./.i (.  ",
"  _ _.:.<.[.}.|.1.2.3.4./.5.    ",
"    6.7.8.9.0.* a.b.c.d.e.f.    ",
"      g.h.i.+ * j.k.l.m.n.      ",
"          o.p.q.r.s.t.          ",
"              u.v.              "};
