<?xml version="1.0" encoding="UTF-8" standalone="no"?>
<!DOCTYPE svg PUBLIC "-//W3C//DTD SVG 20010904//EN"
              "http://www.w3.org/TR/2001/REC-SVG-20010904/DTD/svg10.dtd">

<svg xmlns="http://www.w3.org/2000/svg"
     width="705.467mm" height="705.467mm"
     viewBox="0 0 2000 2000">
  <path id="Selection"
        fill="white" stroke="none" stroke-width="1"
        d="M 967.00,0.21
           C 960.72,1.32 954.33,0.99 948.00,1.00
             948.00,1.00 929.00,2.91 929.00,2.91
             929.00,2.91 895.00,5.17 895.00,5.17
             895.00,5.17 886.00,6.83 886.00,6.83
             886.00,6.83 862.00,9.30 862.00,9.30
             801.76,18.17 748.13,30.79 690.00,48.96
             690.00,48.96 672.00,55.31 672.00,55.31
             624.56,71.91 578.35,91.38 534.00,115.12
             534.00,115.12 508.00,128.87 508.00,128.87
             460.80,155.65 415.37,186.55 373.00,220.45
             254.01,315.64 157.38,439.95 93.11,578.00
             61.24,646.48 36.49,720.05 21.12,794.00
             21.12,794.00 10.71,855.00 10.71,855.00
             10.71,855.00 6.83,886.00 6.83,886.00
             6.83,886.00 5.17,895.00 5.17,895.00
             5.17,895.00 2.91,929.00 2.91,929.00
             2.91,929.00 1.00,946.00 1.00,946.00
             1.00,946.00 1.00,960.00 1.00,960.00
             1.00,960.00 0.00,975.00 0.00,975.00
             0.00,975.00 0.00,1025.00 0.00,1025.00
             0.00,1025.00 1.04,1040.00 1.04,1040.00
             1.04,1040.00 1.04,1057.00 1.04,1057.00
             1.04,1057.00 2.91,1071.00 2.91,1071.00
             2.91,1071.00 5.17,1105.00 5.17,1105.00
             5.17,1105.00 6.83,1114.00 6.83,1114.00
             10.18,1144.87 14.79,1175.57 21.12,1206.00
             67.66,1429.87 194.41,1636.68 373.00,1779.55
             463.94,1852.31 562.21,1906.26 672.00,1944.69
             733.71,1966.30 797.38,1981.18 862.00,1990.70
             862.00,1990.70 886.00,1993.17 886.00,1993.17
             886.00,1993.17 895.00,1994.83 895.00,1994.83
             895.00,1994.83 920.00,1997.04 920.00,1997.04
             920.00,1997.04 930.00,1997.04 930.00,1997.04
             930.00,1997.04 946.00,1999.00 946.00,1999.00
             946.00,1999.00 960.00,1999.00 960.00,1999.00
             960.00,1999.00 975.00,2000.00 975.00,2000.00
             975.00,2000.00 1025.00,2000.00 1025.00,2000.00
             1025.00,2000.00 1042.00,1998.92 1042.00,1998.92
             1042.00,1998.92 1058.00,1998.92 1058.00,1998.92
             1058.00,1998.92 1071.00,1997.09 1071.00,1997.09
             1071.00,1997.09 1105.00,1994.83 1105.00,1994.83
             1105.00,1994.83 1114.00,1993.17 1114.00,1993.17
             1114.00,1993.17 1138.00,1990.70 1138.00,1990.70
             1187.58,1983.40 1236.93,1973.15 1285.00,1958.80
             1409.76,1921.55 1525.31,1860.91 1627.00,1779.55
             1627.00,1779.55 1676.00,1737.17 1676.00,1737.17
             1676.00,1737.17 1710.99,1704.00 1710.99,1704.00
             1821.93,1590.47 1900.61,1461.43 1950.72,1311.00
             1969.40,1254.89 1982.10,1196.42 1990.70,1138.00
             1990.70,1138.00 1993.17,1114.00 1993.17,1114.00
             1993.17,1114.00 1994.83,1105.00 1994.83,1105.00
             1994.83,1105.00 1997.09,1071.00 1997.09,1071.00
             1997.09,1071.00 1998.92,1058.00 1998.92,1058.00
             1998.92,1058.00 1998.92,1042.00 1998.92,1042.00
             1998.92,1042.00 2000.00,1025.00 2000.00,1025.00
             2000.00,1025.00 2000.00,975.00 2000.00,975.00
             2000.00,975.00 1999.00,959.00 1999.00,959.00
             1999.00,959.00 1999.00,946.00 1999.00,946.00
             1999.00,946.00 1997.04,930.00 1997.04,930.00
             1997.04,930.00 1997.04,920.00 1997.04,920.00
             1997.04,920.00 1994.83,895.00 1994.83,895.00
             1994.83,895.00 1993.17,886.00 1993.17,886.00
             1993.17,886.00 1990.70,862.00 1990.70,862.00
             1984.54,820.15 1976.20,778.84 1965.08,738.00
             1919.48,570.47 1832.19,418.60 1710.00,295.00
             1710.00,295.00 1676.00,262.83 1676.00,262.83
             1676.00,262.83 1627.00,220.45 1627.00,220.45
             1518.53,133.67 1395.93,71.37 1262.00,34.92
             1221.16,23.80 1179.85,15.46 1138.00,9.30
             1138.00,9.30 1114.00,6.83 1114.00,6.83
             1114.00,6.83 1105.00,5.17 1105.00,5.17
             1105.00,5.17 1071.00,2.91 1071.00,2.91
             1071.00,2.91 1058.00,1.08 1058.00,1.08
             1058.00,1.08 1041.00,1.08 1041.00,1.08
             1041.00,1.08 1025.00,0.21 1025.00,0.21
             1025.00,0.21 967.00,0.21 967.00,0.21 Z" />
  <path id="Auswahl"
        fill="#480027" stroke="#480027" stroke-width="1"
        d="M 968.00,0.21
           C 962.71,1.17 958.29,0.99 953.00,1.00
             953.00,1.00 940.00,1.96 940.00,1.96
             940.00,1.96 887.00,6.28 887.00,6.28
             818.64,14.72 757.72,27.34 692.00,48.34
             433.88,130.84 213.61,322.84 97.78,568.00
             55.21,658.11 26.87,749.52 11.58,848.00
             6.85,878.47 3.30,909.23 1.96,940.00
             1.96,940.00 0.96,951.00 0.96,951.00
             0.96,951.00 0.96,964.00 0.96,964.00
             0.96,964.00 0.00,976.00 0.00,976.00
             0.00,976.00 0.00,1024.00 0.00,1024.00
             0.00,1024.00 0.96,1036.00 0.96,1036.00
             0.96,1036.00 0.96,1048.00 0.96,1048.00
             0.96,1048.00 1.96,1060.00 1.96,1060.00
             3.08,1085.74 5.91,1111.42 9.28,1137.00
             30.55,1298.62 96.23,1458.51 192.15,1590.00
             245.82,1663.57 309.48,1729.47 381.00,1785.79
             467.36,1853.79 562.52,1905.87 666.00,1942.69
             732.47,1966.34 804.93,1983.78 875.00,1992.15
             875.00,1992.15 940.00,1998.04 940.00,1998.04
             940.00,1998.04 951.00,1999.04 951.00,1999.04
             951.00,1999.04 964.00,1999.04 964.00,1999.04
             964.00,1999.04 976.00,2000.00 976.00,2000.00
             976.00,2000.00 1024.00,2000.00 1024.00,2000.00
             1024.00,2000.00 1041.00,1999.00 1041.00,1999.00
             1041.00,1999.00 1098.00,1995.17 1098.00,1995.17
             1169.98,1987.97 1239.06,1973.69 1308.00,1951.66
             1449.73,1906.36 1582.57,1826.79 1690.00,1724.04
             1690.00,1724.04 1715.96,1699.00 1715.96,1699.00
             1819.59,1590.66 1896.47,1467.72 1945.66,1326.00
             1968.39,1260.48 1983.32,1192.69 1992.28,1124.00
             1992.28,1124.00 1998.04,1060.00 1998.04,1060.00
             1998.04,1060.00 1999.00,1041.00 1999.00,1041.00
             1999.00,1041.00 2000.00,1024.00 2000.00,1024.00
             2000.00,1024.00 2000.00,976.00 2000.00,976.00
             2000.00,976.00 1999.04,964.00 1999.04,964.00
             1999.04,964.00 1999.04,951.00 1999.04,951.00
             1999.04,951.00 1998.04,940.00 1998.04,940.00
             1998.04,940.00 1994.16,892.00 1994.16,892.00
             1988.60,839.97 1978.83,788.51 1965.15,738.00
             1921.82,577.99 1838.66,429.83 1724.04,310.00
             1724.04,310.00 1714.99,300.00 1714.99,300.00
             1714.99,300.00 1690.00,275.96 1690.00,275.96
             1570.17,161.34 1422.01,78.18 1262.00,34.85
             1211.49,21.17 1160.03,11.40 1108.00,5.84
             1108.00,5.84 1060.00,1.96 1060.00,1.96
             1060.00,1.96 1049.00,0.96 1049.00,0.96
             1049.00,0.96 1036.00,0.96 1036.00,0.96
             1036.00,0.96 1024.00,0.21 1024.00,0.21
             1024.00,0.21 968.00,0.21 968.00,0.21 Z
           M 528.00,455.07
           C 528.00,455.07 567.00,455.07 567.00,455.07
             567.00,455.07 641.00,455.07 641.00,455.07
             641.00,455.07 863.00,455.07 863.00,455.07
             865.35,455.00 868.63,454.78 870.67,456.02
             872.92,457.38 874.56,460.75 875.85,463.00
             875.85,463.00 885.14,479.00 885.14,479.00
             885.14,479.00 929.58,556.00 929.58,556.00
             929.58,556.00 1117.58,882.00 1117.58,882.00
             1117.58,882.00 1267.15,1141.00 1267.15,1141.00
             1267.15,1141.00 1287.99,1177.00 1287.99,1177.00
             1292.23,1184.25 1296.16,1192.47 1301.47,1199.00
             1312.87,1213.03 1328.99,1220.79 1347.00,1221.00
             1356.68,1221.11 1367.56,1221.96 1370.47,1210.00
             1371.08,1207.50 1371.00,1204.57 1371.00,1202.00
             1371.00,1202.00 1371.00,1081.00 1371.00,1081.00
             1371.00,1081.00 1371.00,620.00 1371.00,620.00
             1370.96,597.28 1361.24,582.29 1337.00,582.00
             1331.35,581.94 1324.78,581.64 1320.21,585.57
             1315.97,589.21 1315.07,594.73 1315.00,600.00
             1315.00,600.00 1315.00,634.00 1315.00,634.00
             1315.00,634.00 1315.00,805.00 1315.00,805.00
             1314.97,825.08 1302.09,837.76 1282.00,838.00
             1282.00,838.00 1221.00,838.00 1221.00,838.00
             1216.81,837.99 1214.10,838.06 1210.00,836.78
             1183.24,828.45 1188.00,798.80 1188.00,777.00
             1188.00,777.00 1188.00,757.00 1188.00,757.00
             1188.00,757.00 1188.00,487.00 1188.00,487.00
             1188.01,482.13 1188.01,479.78 1189.44,475.00
             1195.62,454.35 1210.62,455.00 1228.00,455.00
             1228.00,455.00 1253.00,455.00 1253.00,455.00
             1253.00,455.00 1465.00,455.00 1465.00,455.00
             1486.09,455.03 1497.97,468.24 1498.00,489.00
             1498.00,489.00 1498.00,655.00 1498.00,655.00
             1498.00,655.00 1498.00,1316.00 1498.00,1316.00
             1497.97,1338.38 1481.93,1348.75 1461.00,1349.00
             1461.00,1349.00 1383.00,1349.00 1383.00,1349.00
             1383.00,1349.00 1247.00,1349.00 1247.00,1349.00
             1245.12,1349.00 1241.89,1349.12 1240.21,1348.40
             1236.85,1346.96 1230.56,1334.69 1228.42,1331.00
             1228.42,1331.00 1196.80,1276.00 1196.80,1276.00
             1196.80,1276.00 1135.13,1169.00 1135.13,1169.00
             1135.13,1169.00 1060.58,1040.00 1060.58,1040.00
             1060.58,1040.00 858.58,690.00 858.58,690.00
             858.58,690.00 828.45,638.00 828.45,638.00
             822.71,628.31 814.66,612.12 807.70,604.00
             794.54,588.64 774.79,582.03 755.00,582.00
             755.00,582.00 532.00,582.00 532.00,582.00
             527.51,581.99 525.38,582.10 521.00,580.64
             493.94,571.62 499.00,535.49 499.00,513.00
             499.00,513.00 499.00,495.00 499.00,495.00
             499.03,487.88 500.04,477.21 503.53,471.00
             509.04,461.19 517.39,457.30 528.00,455.07 Z
           M 531.00,648.10
           C 531.00,648.10 605.00,648.10 605.00,648.10
             605.00,648.10 748.00,648.10 748.00,648.10
             750.38,648.00 753.71,647.80 755.79,649.02
             758.28,650.49 760.01,654.50 761.42,657.00
             761.42,657.00 773.00,677.00 773.00,677.00
             773.00,677.00 828.30,773.00 828.30,773.00
             828.30,773.00 855.58,820.00 855.58,820.00
             855.58,820.00 896.58,891.00 896.58,891.00
             896.58,891.00 1054.00,1164.00 1054.00,1164.00
             1054.00,1164.00 1162.58,1352.00 1162.58,1352.00
             1167.66,1360.98 1183.68,1389.75 1189.18,1396.00
             1202.25,1410.84 1221.52,1417.77 1241.00,1418.00
             1241.00,1418.00 1466.00,1418.00 1466.00,1418.00
             1486.70,1418.03 1497.97,1432.00 1498.00,1452.00
             1498.00,1452.00 1498.00,1513.00 1498.00,1513.00
             1497.97,1533.51 1483.84,1544.91 1464.00,1545.00
             1464.00,1545.00 1414.00,1545.00 1414.00,1545.00
             1414.00,1545.00 1134.00,1545.00 1134.00,1545.00
             1124.83,1544.98 1125.62,1545.05 1117.58,1531.00
             1117.58,1531.00 1102.60,1505.00 1102.60,1505.00
             1102.60,1505.00 1027.58,1375.00 1027.58,1375.00
             1027.58,1375.00 746.58,888.00 746.58,888.00
             746.58,888.00 709.01,823.00 709.01,823.00
             700.44,808.41 694.59,795.26 680.00,785.22
             666.88,776.19 657.13,775.80 642.00,776.00
             636.06,776.08 632.09,777.52 628.93,783.00
             626.87,786.59 627.01,791.00 627.00,795.00
             627.00,795.00 627.00,1378.00 627.00,1378.00
             627.03,1398.03 635.44,1415.73 658.00,1416.00
             665.35,1416.08 674.35,1417.40 679.49,1410.90
             684.46,1404.61 683.00,1389.07 683.00,1381.00
             683.00,1381.00 683.00,1309.00 683.00,1309.00
             683.00,1309.00 683.00,1209.00 683.00,1209.00
             683.00,1194.58 680.50,1178.88 693.04,1168.52
             704.08,1159.39 715.63,1160.00 729.00,1160.00
             729.00,1160.00 776.00,1160.00 776.00,1160.00
             780.34,1160.05 783.82,1160.56 788.00,1161.75
             815.10,1169.39 810.00,1201.36 810.00,1223.00
             810.00,1223.00 810.00,1241.00 810.00,1241.00
             810.00,1241.00 810.00,1511.00 810.00,1511.00
             809.99,1515.64 809.87,1519.52 808.40,1524.00
             801.78,1544.19 786.54,1544.00 769.00,1544.00
             769.00,1544.00 746.00,1544.00 746.00,1544.00
             746.00,1544.00 537.00,1544.00 537.00,1544.00
             531.20,1543.99 524.42,1543.42 519.00,1541.24
             502.98,1534.80 499.02,1517.56 499.00,1502.00
             499.00,1502.00 499.00,1357.00 499.00,1357.00
             499.00,1357.00 499.00,816.00 499.00,816.00
             499.00,816.00 499.00,720.00 499.00,720.00
             499.00,708.22 498.10,679.99 501.22,670.00
             505.79,655.37 517.14,650.58 531.00,648.10 Z" />
</svg>
